HIERARCHY
ROOT hip
{
  OFFSET 5.70873 43.8894 -1.52928
  CHANNELS 6 Xposition Yposition Zposition Zrotation Xrotation Yrotation
  JOINT abdomen
  {
    OFFSET 0 5.99393 0.287273
    CHANNELS 6 Xposition Yposition Zposition Zrotation Xrotation Yrotation
    JOINT chest
    {
      OFFSET 0 6.65865 -0.856112
      CHANNELS 6 Xposition Yposition Zposition Zrotation Xrotation Yrotation
      JOINT neck
      {
        OFFSET 0 8.65624 -1.42685
        CHANNELS 6 Xposition Yposition Zposition Zrotation Xrotation Yrotation
        JOINT head
        {
          OFFSET 0 3.80999 -0.190247
          CHANNELS 6 Xposition Yposition Zposition Zrotation Xrotation Yrotation
          End Site
          {
            OFFSET 0 0 0
          }
        }
      }
      JOINT rCollar
      {
        OFFSET -1.4963 7.5744 -1.52136
        CHANNELS 6 Xposition Yposition Zposition Zrotation Xrotation Yrotation
        JOINT rShldr
        {
          OFFSET -5.47506 -0.905672 0.485692
          CHANNELS 6 Xposition Yposition Zposition Zrotation Xrotation Yrotation
          JOINT rForeArm
          {
            OFFSET -11.3069 -0.201091 0.618544
            CHANNELS 6 Xposition Yposition Zposition Zrotation Xrotation Yrotation
            JOINT rHand
            {
              OFFSET -9.61414 -0.254739 3.48553
              CHANNELS 6 Xposition Yposition Zposition Zrotation Xrotation Yrotation
              JOINT rThumb1
              {
                OFFSET 0.176263 -0.07068 1.26622
                CHANNELS 6 Xposition Yposition Zposition Zrotation Xrotation Yrotation
                JOINT rThumb2
                {
                  OFFSET -1.04683 -0.546484 1.82182
                  CHANNELS 6 Xposition Yposition Zposition Zrotation Xrotation Yrotation
                  JOINT rThumb3
                  {
                    OFFSET -0.993472 -0.621916 0.655506
                    CHANNELS 6 Xposition Yposition Zposition Zrotation Xrotation Yrotation
                    End Site
                    {
                      OFFSET -0.996134 -0.66263 0.644615
                    }
                  }
                }
              }
              JOINT rIndex1
              {
                OFFSET -2.64253 0.566363 2.4162
                CHANNELS 6 Xposition Yposition Zposition Zrotation Xrotation Yrotation
                JOINT rIndex2
                {
                  OFFSET -1.39394 -0.635138 0.899356
                  CHANNELS 6 Xposition Yposition Zposition Zrotation Xrotation Yrotation
                  JOINT rIndex3
                  {
                    OFFSET -0.622395 -0.856016 0.402182
                    CHANNELS 6 Xposition Yposition Zposition Zrotation Xrotation Yrotation
                    End Site
                    {
                      OFFSET -0.472476 -0.801802 0.34216
                    }
                  }
                }
              }
              JOINT rMid1
              {
                OFFSET -3.20814 0.514427 1.52547
                CHANNELS 6 Xposition Yposition Zposition Zrotation Xrotation Yrotation
                JOINT rMid2
                {
                  OFFSET -1.56545 -0.497974 0.68919
                  CHANNELS 6 Xposition Yposition Zposition Zrotation Xrotation Yrotation
                  JOINT rMid3
                  {
                    OFFSET -0.679943 -1.17582 0.444246
                    CHANNELS 6 Xposition Yposition Zposition Zrotation Xrotation Yrotation
                    End Site
                    {
                      OFFSET -0.343874 -0.941341 0.267611
                    }
                  }
                }
              }
              JOINT rRing1
              {
                OFFSET -3.47877 0.200518 0.597719
                CHANNELS 6 Xposition Yposition Zposition Zrotation Xrotation Yrotation
                JOINT rRing2
                {
                  OFFSET -1.28208 -0.53155 0.44672
                  CHANNELS 6 Xposition Yposition Zposition Zrotation Xrotation Yrotation
                  JOINT rRing3
                  {
                    OFFSET -0.710288 -0.970167 0.4032
                    CHANNELS 6 Xposition Yposition Zposition Zrotation Xrotation Yrotation
                    End Site
                    {
                      OFFSET -0.403228 -0.950952 0.378354
                    }
                  }
                }
              }
              JOINT rPinky1
              {
                OFFSET -3.42483 -0.278904 -0.240415
                CHANNELS 6 Xposition Yposition Zposition Zrotation Xrotation Yrotation
                JOINT rPinky2
                {
                  OFFSET -1.05787 -0.635999 0.156459
                  CHANNELS 6 Xposition Yposition Zposition Zrotation Xrotation Yrotation
                  JOINT rPinky3
                  {
                    OFFSET -0.42815 -0.754232 0.287187
                    CHANNELS 6 Xposition Yposition Zposition Zrotation Xrotation Yrotation
                    End Site
                    {
                      OFFSET -0.235717 -0.725605 0.279416
                    }
                  }
                }
              }
            }
          }
        }
      }
      JOINT lCollar
      {
        OFFSET 1.4963 7.5744 -1.52136
        CHANNELS 6 Xposition Yposition Zposition Zrotation Xrotation Yrotation
        JOINT lShldr
        {
          OFFSET 5.47506 -0.905672 0.485692
          CHANNELS 6 Xposition Yposition Zposition Zrotation Xrotation Yrotation
          JOINT lForeArm
          {
            OFFSET 11.3069 -0.201091 0.618544
            CHANNELS 6 Xposition Yposition Zposition Zrotation Xrotation Yrotation
            JOINT lHand
            {
              OFFSET 9.61414 -0.254739 3.48553
              CHANNELS 6 Xposition Yposition Zposition Zrotation Xrotation Yrotation
              JOINT lThumb1
              {
                OFFSET -0.176263 -0.07068 1.26622
                CHANNELS 6 Xposition Yposition Zposition Zrotation Xrotation Yrotation
                JOINT lThumb2
                {
                  OFFSET 1.04683 -0.546484 1.82182
                  CHANNELS 6 Xposition Yposition Zposition Zrotation Xrotation Yrotation
                  JOINT lThumb3
                  {
                    OFFSET 0.993472 -0.621916 0.655506
                    CHANNELS 6 Xposition Yposition Zposition Zrotation Xrotation Yrotation
                    End Site
                    {
                      OFFSET 0.996134 -0.66263 0.644615
                    }
                  }
                }
              }
              JOINT lIndex1
              {
                OFFSET 2.64253 0.566363 2.4162
                CHANNELS 6 Xposition Yposition Zposition Zrotation Xrotation Yrotation
                JOINT lIndex2
                {
                  OFFSET 1.39394 -0.635138 0.899356
                  CHANNELS 6 Xposition Yposition Zposition Zrotation Xrotation Yrotation
                  JOINT lIndex3
                  {
                    OFFSET 0.622395 -0.856016 0.402182
                    CHANNELS 6 Xposition Yposition Zposition Zrotation Xrotation Yrotation
                    End Site
                    {
                      OFFSET 0.472476 -0.801802 0.34216
                    }
                  }
                }
              }
              JOINT lMid1
              {
                OFFSET 3.20814 0.514427 1.52547
                CHANNELS 6 Xposition Yposition Zposition Zrotation Xrotation Yrotation
                JOINT lMid2
                {
                  OFFSET 1.56545 -0.497974 0.68919
                  CHANNELS 6 Xposition Yposition Zposition Zrotation Xrotation Yrotation
                  JOINT lMid3
                  {
                    OFFSET 0.679943 -1.17582 0.444246
                    CHANNELS 6 Xposition Yposition Zposition Zrotation Xrotation Yrotation
                    End Site
                    {
                      OFFSET 0.343874 -0.941341 0.267611
                    }
                  }
                }
              }
              JOINT lRing1
              {
                OFFSET 3.47877 0.200518 0.597719
                CHANNELS 6 Xposition Yposition Zposition Zrotation Xrotation Yrotation
                JOINT lRing2
                {
                  OFFSET 1.28208 -0.53155 0.44672
                  CHANNELS 6 Xposition Yposition Zposition Zrotation Xrotation Yrotation
                  JOINT lRing3
                  {
                    OFFSET 0.710288 -0.970167 0.4032
                    CHANNELS 6 Xposition Yposition Zposition Zrotation Xrotation Yrotation
                    End Site
                    {
                      OFFSET 0.403228 -0.950952 0.378354
                    }
                  }
                }
              }
              JOINT lPinky1
              {
                OFFSET 3.42483 -0.278904 -0.240415
                CHANNELS 6 Xposition Yposition Zposition Zrotation Xrotation Yrotation
                JOINT lPinky2
                {
                  OFFSET 1.05787 -0.635999 0.156459
                  CHANNELS 6 Xposition Yposition Zposition Zrotation Xrotation Yrotation
                  JOINT lPinky3
                  {
                    OFFSET 0.42815 -0.754232 0.287187
                    CHANNELS 6 Xposition Yposition Zposition Zrotation Xrotation Yrotation
                    End Site
                    {
                      OFFSET 0.235717 -0.725605 0.279416
                    }
                  }
                }
              }
            }
          }
        }
      }
    }
  }
  JOINT rThigh
  {
    OFFSET -4.17848 -1.02486 0.046356
    CHANNELS 6 Xposition Yposition Zposition Zrotation Xrotation Yrotation
    JOINT rShin
    {
      OFFSET 1.27155 -17.465 -0.237699
      CHANNELS 6 Xposition Yposition Zposition Zrotation Xrotation Yrotation
      JOINT rFoot
      {
        OFFSET 0.529163 -17.3815 -1.19582
        CHANNELS 6 Xposition Yposition Zposition Zrotation Xrotation Yrotation
        JOINT rToe
        {
          OFFSET -0.711591 -4.4863 4.0596
          CHANNELS 6 Xposition Yposition Zposition Zrotation Xrotation Yrotation
          End Site
          {
            OFFSET -0.869915 -1.10655 1.99006
          }
        }
      }
    }
  }
  JOINT lThigh
  {
    OFFSET 4.17848 -1.02486 0.046356
    CHANNELS 6 Xposition Yposition Zposition Zrotation Xrotation Yrotation
    JOINT lShin
    {
      OFFSET -1.27155 -17.465 -0.237699
      CHANNELS 6 Xposition Yposition Zposition Zrotation Xrotation Yrotation
      JOINT lFoot
      {
        OFFSET -0.529163 -17.3815 -1.19582
        CHANNELS 6 Xposition Yposition Zposition Zrotation Xrotation Yrotation
        JOINT lToe
        {
          OFFSET 0.711591 -4.4863 4.0596
          CHANNELS 6 Xposition Yposition Zposition Zrotation Xrotation Yrotation
          End Site
          {
            OFFSET 0.869915 -1.10655 1.99006
          }
        }
      }
    }
  }
}
MOTION
Frames:	4
Frame Time:	0.0333333
-4.97434 37.0741 -20.3755 29.8488 17.7688 -4.84282 0 5.99393 0.287273 -9.09567 -2.28663 -7.42698 -2.22045e-015 6.65865 -0.856112 -18.4227 -3.35348 -15.132 -3.55271e-015 8.65624 -1.42685 -1.43331 0.746135 49.0764 1.77636e-015 3.80999 -0.190247 -2.82726 11.286 23.8469 -1.4963 7.5744 -1.52136 -21.9562 -0.656255 10.0614 -5.47506 -0.905672 0.485692 45.0499 1.53972 61.8487 -11.3069 -0.201091 0.618544 46.6773 -10.909 94.5276 -9.61414 -0.254739 3.48553 19.2516 -25.2667 37.6034 0.176263 -0.07068 1.26622 -15.6873 50.412 18.5117 -1.04683 -0.546484 1.82182 -0.516012 0.557771 -1.56007 -0.993472 -0.621916 0.655506 -3.74149 4.91951 -12.5873 -2.64253 0.566363 2.4162 -23.6213 5.47127 -14.5208 -1.39394 -0.635138 0.899356 39.8962 7.70374 -8.81736 -0.622395 -0.856016 0.402182 43.2801 8.03473 -9.7604 -3.20814 0.514427 1.52547 -0.8406 5.9497 -9.8242 -1.56545 -0.497974 0.68919 52.7411 10.5331 -13.0892 -0.679943 -1.17582 0.444246 44.4809 9.7811 -10.5177 -3.47877 0.200518 0.597719 16.3707 -0.64493 -5.84605 -1.28208 -0.53155 0.44672 37.8363 9.71781 -10.3214 -0.710288 -0.970167 0.4032 39.1354 9.91102 -10.7658 -3.42483 -0.278904 -0.240415 24.5434 -1.90435 -2.26381 -1.05787 -0.635999 0.156459 31.0686 9.47897 -7.89259 -0.42815 -0.754232 0.287187 30.9983 9.46369 -7.86984 1.4963 7.5744 -1.52136 -5.33184 1.27153 14.0845 5.47506 -0.905672 0.485692 -65.9654 10.0599 -28.2167 11.3069 -0.201091 0.618544 -18.7675 14.9171 -42.0516 9.61414 -0.254739 3.48553 2.59732 -5.15714 -38.6858 -0.176263 -0.07068 1.26622 14.9338 33.9999 -27.2487 1.04683 -0.546484 1.82182 -6.9707 -1.28415 -12.2252 0.993472 -0.621916 0.655506 -3.57786 -0.852431 -6.3197 2.64253 0.566363 2.4162 9.23216 0.806557 2.43178 1.39394 -0.635138 0.899356 -13.487 3.78789 5.78455 0.622395 -0.856016 0.402182 -15.7113 4.26918 6.80167 3.20814 0.514427 1.52547 7.19648 -2.9862 -1.87839 1.56545 -0.497974 0.68919 -25.3623 6.91108 11.6134 0.679943 -1.17582 0.444246 3.16802 -1.24487 -1.24697 3.47877 0.200518 0.597719 1.84709 -4.42259 2.32629 1.28208 -0.53155 0.44672 -5.38124 2.12117 2.53667 0.710288 -0.970167 0.4032 -3.37356 1.36268 1.57173 3.42483 -0.278904 -0.240415 12.3818 -10.1837 3.66328 1.05787 -0.635999 0.156459 -10.5213 4.23769 5.01691 0.42815 -0.754232 0.287187 -2.71717 1.18095 1.23211 -4.17848 -1.02486 0.046356 -76.6821 -60.5444 -40.3025 1.27155 -17.465 -0.237699 2.6494 19.5725 -0.438175 0.529163 -17.3815 -1.19582 21.1846 34.0395 9.68155 -0.711591 -4.4863 4.0596 -1.51694 -11.1695 0.152202 4.17848 -1.02486 0.046356 -40.2091 -62.5835 -12.342 -1.27155 -17.465 -0.237699 1.70632 47.5683 -4.56689 -0.529163 -17.3815 -1.19582 0.502065 -2.90012 -6.89691 0.711591 -4.4863 4.0596 0.717174 -5.71118 0.323724 
-4.87091 37.6185 -19.9653 30.3491 17.4245 -5.24531 3.55271e-015 5.99393 0.287273 -9.17723 -2.42925 -7.19006 2.66454e-015 6.65865 -0.856112 -18.6006 -3.66336 -14.687 0 8.65624 -1.42685 -1.5121 0.113261 49.4216 0 3.80999 -0.190247 -2.52707 11.5266 23.7802 -1.4963 7.5744 -1.52136 -21.0844 -0.680926 10.7471 -5.47506 -0.905672 0.485692 45.5662 2.05979 60.0554 -11.3069 -0.201091 0.618544 45.1396 -8.98814 93.3662 -9.61414 -0.254739 3.48553 19.3692 -25.2136 38.4037 0.176263 -0.07068 1.26622 -15.6873 50.4121 18.5117 -1.04683 -0.546484 1.82182 -0.515886 0.557649 -1.56016 -0.993472 -0.621916 0.655506 -3.7311 4.90226 -12.5468 -2.64253 0.566363 2.4162 -23.6212 5.47111 -14.5208 -1.39394 -0.635138 0.899356 39.8962 7.70375 -8.81736 -0.622395 -0.856016 0.402182 43.2354 8.03073 -9.74783 -3.20814 0.514427 1.52547 -0.840562 5.94954 -9.82421 -1.56545 -0.497974 0.68919 52.7411 10.5331 -13.0892 -0.679943 -1.17582 0.444246 44.4809 9.7811 -10.5177 -3.47877 0.200518 0.597719 16.3707 -0.644919 -5.84606 -1.28208 -0.53155 0.44672 37.8363 9.71784 -10.3214 -0.710288 -0.970167 0.4032 39.1354 9.91105 -10.7658 -3.42483 -0.278904 -0.240415 24.5434 -1.90428 -2.26384 -1.05787 -0.635999 0.156459 31.0686 9.47899 -7.8926 -0.42815 -0.754232 0.287187 30.9984 9.46355 -7.86988 1.4963 7.5744 -1.52136 -5.60376 1.31561 14.6503 5.47506 -0.905672 0.485692 -65.9669 10.1333 -28.0168 11.3069 -0.201091 0.618544 -19.1832 15.8677 -41.5091 9.61414 -0.254739 3.48553 1.61353 -4.68749 -39.0343 -0.176263 -0.07068 1.26622 14.5262 33.7698 -26.9005 1.04683 -0.546484 1.82182 -6.99087 -1.28569 -12.2601 0.993472 -0.621916 0.655506 -3.40306 -0.819249 -6.009 2.64253 0.566363 2.4162 8.96417 0.82051 2.41884 1.39394 -0.635138 0.899356 -13.4838 3.78718 5.78307 0.622395 -0.856016 0.402182 -15.7108 4.26905 6.80141 3.20814 0.514427 1.52547 7.13443 -2.92063 -1.87414 1.56545 -0.497974 0.68919 -25.1317 6.87368 11.4984 0.679943 -1.17582 0.444246 3.19747 -1.25682 -1.25827 3.47877 0.200518 0.597719 1.91186 -4.37837 2.2964 1.28208 -0.53155 0.44672 -5.34264 2.10695 2.51793 0.710288 -0.970167 0.4032 -3.21215 1.29996 1.49512 3.42483 -0.278904 -0.240415 12.41 -10.1289 3.71362 1.05787 -0.635999 0.156459 -10.1445 4.10479 4.82737 0.42815 -0.754232 0.287187 -2.40779 1.05147 1.09 -4.17848 -1.02486 0.046356 -72.8756 -59.0163 -34.8755 1.27155 -17.465 -0.237699 2.18594 16.5714 -0.276414 0.529163 -17.3815 -1.19582 21.9734 33.9751 8.26382 -0.711591 -4.4863 4.0596 -1.55451 -11.4444 0.152172 4.17848 -1.02486 0.046356 -39.5556 -59.8139 -11.4091 -1.27155 -17.465 -0.237699 1.50119 44.3861 -4.24529 -0.529163 -17.3815 -1.19582 0.379452 -2.32181 -6.71836 0.711591 -4.4863 4.0596 0.673648 -5.3732 0.302516 
-4.79572 38.0918 -19.5507 30.9021 16.7886 -5.35439 0 5.99393 0.287273 -9.24443 -2.56254 -6.90634 -1.33227e-015 6.65865 -0.856112 -18.7469 -3.965 -14.1477 0 8.65624 -1.42685 -1.45884 -0.0848319 49.6501 8.88178e-016 3.80999 -0.190247 -2.63756 11.7619 23.5773 -1.4963 7.5744 -1.52136 -20.5741 -0.712535 11.4843 -5.47506 -0.905672 0.485692 46.4174 2.88084 57.9535 -11.3069 -0.201091 0.618544 44.1141 -7.28552 92.5843 -9.61414 -0.254739 3.48553 19.5345 -24.6727 38.8342 0.176263 -0.07068 1.26622 -15.6873 50.4122 18.5118 -1.04683 -0.546484 1.82182 -0.515877 0.557646 -1.56014 -0.993472 -0.621916 0.655506 -3.72068 4.88501 -12.5063 -2.64253 0.566363 2.4162 -23.6212 5.47115 -14.5208 -1.39394 -0.635138 0.899356 39.8962 7.70375 -8.81737 -0.622395 -0.856016 0.402182 43.1907 8.02671 -9.73523 -3.20814 0.514427 1.52547 -0.840535 5.94956 -9.82422 -1.56545 -0.497974 0.68919 52.741 10.5331 -13.0892 -0.679943 -1.17582 0.444246 44.4809 9.7811 -10.5177 -3.47877 0.200518 0.597719 16.3707 -0.644905 -5.84607 -1.28208 -0.53155 0.44672 37.8363 9.71788 -10.3214 -0.710288 -0.970167 0.4032 39.1354 9.91108 -10.7658 -3.42483 -0.278904 -0.240415 24.5435 -1.90439 -2.26379 -1.05787 -0.635999 0.156459 31.0685 9.47898 -7.89257 -0.42815 -0.754232 0.287187 30.9984 9.46354 -7.86988 1.4963 7.5744 -1.52136 -5.57721 1.35288 15.1005 5.47506 -0.905672 0.485692 -66.2077 10.5295 -27.626 11.3069 -0.201091 0.618544 -19.3938 16.82 -41.0468 9.61414 -0.254739 3.48553 0.561737 -4.49213 -39.2772 -0.176263 -0.07068 1.26622 14.1213 33.5376 -26.5553 1.04683 -0.546484 1.82182 -7.01102 -1.28718 -12.2951 0.993472 -0.621916 0.655506 -3.22907 -0.78643 -5.70413 2.64253 0.566363 2.4162 8.69618 0.834562 2.40597 1.39394 -0.635138 0.899356 -13.4743 3.78506 5.77878 0.622395 -0.856016 0.402182 -15.7102 4.26894 6.80115 3.20814 0.514427 1.52547 7.07233 -2.85507 -1.86982 1.56545 -0.497974 0.68919 -24.8905 6.83407 11.3783 0.679943 -1.17582 0.444246 3.23455 -1.27186 -1.27252 3.47877 0.200518 0.597719 1.97661 -4.3342 2.26647 1.28208 -0.53155 0.44672 -5.30404 2.0927 2.49921 0.710288 -0.970167 0.4032 -3.05081 1.23702 1.41868 3.42483 -0.278904 -0.240415 12.4383 -10.0741 3.76391 1.05787 -0.635999 0.156459 -9.74921 3.96381 4.6292 0.42815 -0.754232 0.287187 -2.09871 0.921232 0.948569 -4.17848 -1.02486 0.046356 -69.9092 -57.2532 -30.5127 1.27155 -17.465 -0.237699 1.81391 14.2668 -0.140964 0.529163 -17.3815 -1.19582 22.79 33.8443 7.33164 -0.711591 -4.4863 4.0596 -1.54443 -11.371 0.152206 4.17848 -1.02486 0.046356 -39.2369 -56.8281 -11.1696 -1.27155 -17.465 -0.237699 1.35586 41.3471 -3.99161 -0.529163 -17.3815 -1.19582 -0.0370451 -1.87149 -5.87236 0.711591 -4.4863 4.0596 0.71803 -5.71797 0.324174 
-4.73592 38.5345 -19.1516 31.129 16.2056 -5.23584 -1.77636e-015 5.99393 0.287273 -9.2169 -2.58797 -6.71926 0 6.65865 -0.856112 -18.691 -4.04956 -13.7796 -3.55271e-015 8.65624 -1.42685 -1.42814 -0.899923 49.9301 0 3.80999 -0.190247 -2.48175 12.029 23.4182 -1.4963 7.5744 -1.52136 -20.3508 -0.738114 11.9765 -5.47506 -0.905672 0.485692 47.4664 3.85634 56.2432 -11.3069 -0.201091 0.618544 43.2736 -5.96568 91.8835 -9.61414 -0.254739 3.48553 19.8663 -23.7854 39.2589 0.176263 -0.07068 1.26622 -15.6872 50.412 18.5117 -1.04683 -0.546484 1.82182 -0.515892 0.557645 -1.56014 -0.993472 -0.621916 0.655506 -3.71027 4.86778 -12.4658 -2.64253 0.566363 2.4162 -23.6213 5.47117 -14.5208 -1.39394 -0.635138 0.899356 39.8961 7.70377 -8.81737 -0.622395 -0.856016 0.402182 43.1459 8.02268 -9.72266 -3.20814 0.514427 1.52547 -0.840529 5.94958 -9.82422 -1.56545 -0.497974 0.68919 52.741 10.5331 -13.0892 -0.679943 -1.17582 0.444246 44.4809 9.78112 -10.5177 -3.47877 0.200518 0.597719 16.3707 -0.644912 -5.84606 -1.28208 -0.53155 0.44672 37.8363 9.71794 -10.3214 -0.710288 -0.970167 0.4032 39.1354 9.9112 -10.7658 -3.42483 -0.278904 -0.240415 24.5435 -1.90441 -2.2638 -1.05787 -0.635999 0.156459 31.0685 9.47903 -7.89257 -0.42815 -0.754232 0.287187 30.9984 9.46354 -7.86987 1.4963 7.5744 -1.52136 -5.64644 1.37164 15.3743 5.47506 -0.905672 0.485692 -66.1836 10.7428 -27.4361 11.3069 -0.201091 0.618544 -19.4441 17.6622 -40.9355 9.61414 -0.254739 3.48553 -0.47776 -4.62821 -39.2746 -0.176263 -0.07068 1.26622 13.7191 33.3034 -26.2129 1.04683 -0.546484 1.82182 -7.03229 -1.28876 -12.332 0.993472 -0.621916 0.655506 -3.06007 -0.753646 -5.40776 2.64253 0.566363 2.4162 8.42821 0.848668 2.39317 1.39394 -0.635138 0.899356 -13.4648 3.78292 5.77447 0.622395 -0.856016 0.402182 -15.7096 4.26882 6.80088 3.20814 0.514427 1.52547 7.01028 -2.78951 -1.86544 1.56545 -0.497974 0.68919 -24.6495 6.79398 11.2584 0.679943 -1.17582 0.444246 3.27164 -1.28693 -1.28674 3.47877 0.200518 0.597719 2.04143 -4.29005 2.23648 1.28208 -0.53155 0.44672 -5.25854 2.0759 2.47714 0.710288 -0.970167 0.4032 -2.88955 1.17386 1.34242 3.42483 -0.278904 -0.240415 12.4665 -10.0193 3.81416 1.05787 -0.635999 0.156459 -9.35445 3.82148 4.43205 0.42815 -0.754232 0.287187 -1.78997 0.790192 0.807861 -4.17848 -1.02486 0.046356 -67.11 -55.0355 -26.9739 1.27155 -17.465 -0.237699 1.42168 11.5973 -0.016891 0.529163 -17.3815 -1.19582 23.7 33.9141 6.19768 -0.711591 -4.4863 4.0596 -1.57601 -11.6021 0.152052 4.17848 -1.02486 0.046356 -39.1097 -53.8751 -11.4452 -1.27155 -17.465 -0.237699 1.24951 38.3781 -3.75635 -0.529163 -17.3815 -1.19582 0.000232606 -1.29585 -5.19175 0.711591 -4.4863 4.0596 0.695522 -5.54315 0.31314 
